<svg width="1920" height="1077" viewBox="0 0 1920 1077" fill="none" xmlns="http://www.w3.org/2000/svg">
<g clip-path="url(#clip0_147_3)">
<rect width="1920" height="1077" fill="white"/>
<circle cx="-54" cy="1224" r="385.5" stroke="white"/>
<circle cx="-54" cy="1245" r="516.5" stroke="white"/>
<circle cx="-54" cy="1245" r="634.5" stroke="white"/>
<circle cx="-49" cy="1219" r="740.5" stroke="white"/>
<circle cx="1927.05" cy="121.055" r="385.5" transform="rotate(-120 1927.05 121.055)" stroke="white"/>
<circle cx="1945.24" cy="110.555" r="516.5" transform="rotate(-120 1945.24 110.555)" stroke="white"/>
<circle cx="1945.24" cy="110.555" r="634.5" transform="rotate(-120 1945.24 110.555)" stroke="white"/>
<circle cx="1920.22" cy="119.225" r="740.5" transform="rotate(-120 1920.22 119.225)" stroke="white"/>
<path d="M-71.8291 192.414C83.9312 233.742 469.847 400.402 767.426 736.413C1065 1072.42 1687.72 1111.46 1961.87 1088.97" stroke="white"/>
<path d="M-59.76 39C101.134 81.6931 499.769 253.858 807.155 600.971C1114.54 948.085 1757.78 988.404 2040.97 965.174" stroke="white"/>
</g>
<defs>
<clipPath id="clip0_147_3">
<rect width="1920" height="1077" fill="white"/>
</clipPath>
</defs>
</svg>
